<mxfile host="app.diagrams.net" agent="Mozilla/5.0 (Windows NT 10.0; Win64; x64) AppleWebKit/537.36 (KHTML, like Gecko) Chrome/135.0.0.0 Safari/537.36" version="26.2.12">
  <diagram name="Page-1" id="cIU6eeP-djC4dK7x-fhZ">
    <mxGraphModel dx="1428" dy="743" grid="0" gridSize="10" guides="1" tooltips="1" connect="1" arrows="1" fold="1" page="1" pageScale="1" pageWidth="1169" pageHeight="827" background="light-dark(#ffffff, #f5efef)" math="0" shadow="0">
      <root>
        <mxCell id="0" />
        <mxCell id="1" parent="0" />
        <object label="" Switch="Switch" id="_nmwgqTeBemc5d6kzkCD-1">
          <mxCell style="rounded=0;whiteSpace=wrap;html=1;labelBackgroundColor=none;fillColor=#09555B;strokeColor=#BAC8D3;fontColor=#EEEEEE;" parent="1" vertex="1">
            <mxGeometry x="255" y="365" width="120" height="60" as="geometry" />
          </mxCell>
        </object>
        <mxCell id="_nmwgqTeBemc5d6kzkCD-2" value="" style="whiteSpace=wrap;html=1;aspect=fixed;labelBackgroundColor=none;fillColor=#09555B;strokeColor=#BAC8D3;fontColor=#EEEEEE;" parent="1" vertex="1">
          <mxGeometry x="165" y="225" width="80" height="80" as="geometry" />
        </mxCell>
        <mxCell id="_nmwgqTeBemc5d6kzkCD-3" value="" style="whiteSpace=wrap;html=1;aspect=fixed;labelBackgroundColor=none;fillColor=#09555B;strokeColor=#BAC8D3;fontColor=#EEEEEE;" parent="1" vertex="1">
          <mxGeometry x="365" y="225" width="80" height="80" as="geometry" />
        </mxCell>
        <mxCell id="_nmwgqTeBemc5d6kzkCD-4" value="" style="whiteSpace=wrap;html=1;aspect=fixed;labelBackgroundColor=none;fillColor=#09555B;strokeColor=#BAC8D3;fontColor=#EEEEEE;" parent="1" vertex="1">
          <mxGeometry x="165" y="485" width="80" height="80" as="geometry" />
        </mxCell>
        <mxCell id="_nmwgqTeBemc5d6kzkCD-5" value="" style="whiteSpace=wrap;html=1;aspect=fixed;labelBackgroundColor=none;fillColor=#09555B;strokeColor=#BAC8D3;fontColor=#EEEEEE;" parent="1" vertex="1">
          <mxGeometry x="375" y="485" width="80" height="80" as="geometry" />
        </mxCell>
        <mxCell id="_nmwgqTeBemc5d6kzkCD-6" value="" style="endArrow=none;html=1;rounded=0;exitX=1;exitY=0;exitDx=0;exitDy=0;entryX=0.5;entryY=1;entryDx=0;entryDy=0;labelBackgroundColor=none;strokeColor=#0B4D6A;fontColor=default;" parent="1" source="_nmwgqTeBemc5d6kzkCD-1" target="_nmwgqTeBemc5d6kzkCD-3" edge="1">
          <mxGeometry width="50" height="50" relative="1" as="geometry">
            <mxPoint x="535" y="415" as="sourcePoint" />
            <mxPoint x="585" y="365" as="targetPoint" />
          </mxGeometry>
        </mxCell>
        <mxCell id="_nmwgqTeBemc5d6kzkCD-7" value="" style="endArrow=none;html=1;rounded=0;exitX=0;exitY=0;exitDx=0;exitDy=0;entryX=0.5;entryY=1;entryDx=0;entryDy=0;labelBackgroundColor=none;strokeColor=#0B4D6A;fontColor=default;" parent="1" source="_nmwgqTeBemc5d6kzkCD-1" target="_nmwgqTeBemc5d6kzkCD-2" edge="1">
          <mxGeometry width="50" height="50" relative="1" as="geometry">
            <mxPoint x="375" y="375" as="sourcePoint" />
            <mxPoint x="399" y="315" as="targetPoint" />
          </mxGeometry>
        </mxCell>
        <mxCell id="_nmwgqTeBemc5d6kzkCD-8" value="" style="endArrow=none;html=1;rounded=0;exitX=1;exitY=1;exitDx=0;exitDy=0;entryX=0.5;entryY=0;entryDx=0;entryDy=0;labelBackgroundColor=none;strokeColor=#0B4D6A;fontColor=default;" parent="1" source="_nmwgqTeBemc5d6kzkCD-1" target="_nmwgqTeBemc5d6kzkCD-5" edge="1">
          <mxGeometry width="50" height="50" relative="1" as="geometry">
            <mxPoint x="375" y="375" as="sourcePoint" />
            <mxPoint x="415" y="315" as="targetPoint" />
          </mxGeometry>
        </mxCell>
        <mxCell id="_nmwgqTeBemc5d6kzkCD-9" value="" style="endArrow=none;html=1;rounded=0;exitX=0.5;exitY=0;exitDx=0;exitDy=0;entryX=0;entryY=1;entryDx=0;entryDy=0;labelBackgroundColor=none;strokeColor=#0B4D6A;fontColor=default;" parent="1" source="_nmwgqTeBemc5d6kzkCD-4" target="_nmwgqTeBemc5d6kzkCD-1" edge="1">
          <mxGeometry width="50" height="50" relative="1" as="geometry">
            <mxPoint x="375" y="435" as="sourcePoint" />
            <mxPoint x="425" y="495" as="targetPoint" />
          </mxGeometry>
        </mxCell>
        <mxCell id="_nmwgqTeBemc5d6kzkCD-11" value="&lt;h1&gt;&lt;b&gt;Switch 01&lt;/b&gt;&lt;/h1&gt;" style="text;strokeColor=none;align=center;fillColor=none;html=1;verticalAlign=middle;whiteSpace=wrap;rounded=0;fontColor=#EEEEEE;" parent="1" vertex="1">
          <mxGeometry x="285" y="380" width="60" height="30" as="geometry" />
        </mxCell>
        <mxCell id="_nmwgqTeBemc5d6kzkCD-13" value="&lt;h1&gt;PC01&lt;/h1&gt;" style="text;strokeColor=none;align=center;fillColor=none;html=1;verticalAlign=middle;whiteSpace=wrap;rounded=0;fontColor=#EEEEEE;" parent="1" vertex="1">
          <mxGeometry x="175" y="255" width="60" height="30" as="geometry" />
        </mxCell>
        <mxCell id="_nmwgqTeBemc5d6kzkCD-14" value="&lt;h1&gt;PC02&lt;/h1&gt;" style="text;strokeColor=none;align=center;fillColor=none;html=1;verticalAlign=middle;whiteSpace=wrap;rounded=0;fontColor=#EEEEEE;" parent="1" vertex="1">
          <mxGeometry x="375" y="250" width="60" height="30" as="geometry" />
        </mxCell>
        <mxCell id="_nmwgqTeBemc5d6kzkCD-15" value="&lt;h1&gt;PC04&lt;/h1&gt;" style="text;strokeColor=none;align=center;fillColor=none;html=1;verticalAlign=middle;whiteSpace=wrap;rounded=0;fontColor=#EEEEEE;" parent="1" vertex="1">
          <mxGeometry x="385" y="510" width="60" height="30" as="geometry" />
        </mxCell>
        <mxCell id="_nmwgqTeBemc5d6kzkCD-16" value="&lt;h1&gt;PC03&lt;/h1&gt;" style="text;strokeColor=none;align=center;fillColor=none;html=1;verticalAlign=middle;whiteSpace=wrap;rounded=0;fontColor=#EEEEEE;" parent="1" vertex="1">
          <mxGeometry x="175" y="509" width="60" height="30" as="geometry" />
        </mxCell>
        <object label="" Switch="Switch" id="_nmwgqTeBemc5d6kzkCD-41">
          <mxCell style="rounded=0;whiteSpace=wrap;html=1;labelBackgroundColor=none;fillColor=#09555B;strokeColor=#BAC8D3;fontColor=#EEEEEE;" parent="1" vertex="1">
            <mxGeometry x="735" y="365" width="120" height="60" as="geometry" />
          </mxCell>
        </object>
        <mxCell id="_nmwgqTeBemc5d6kzkCD-42" value="" style="whiteSpace=wrap;html=1;aspect=fixed;labelBackgroundColor=none;fillColor=#09555B;strokeColor=#BAC8D3;fontColor=#EEEEEE;" parent="1" vertex="1">
          <mxGeometry x="645" y="225" width="80" height="80" as="geometry" />
        </mxCell>
        <mxCell id="_nmwgqTeBemc5d6kzkCD-43" value="" style="whiteSpace=wrap;html=1;aspect=fixed;labelBackgroundColor=none;fillColor=#09555B;strokeColor=#BAC8D3;fontColor=#EEEEEE;" parent="1" vertex="1">
          <mxGeometry x="845" y="225" width="80" height="80" as="geometry" />
        </mxCell>
        <mxCell id="_nmwgqTeBemc5d6kzkCD-44" value="" style="whiteSpace=wrap;html=1;aspect=fixed;labelBackgroundColor=none;fillColor=#09555B;strokeColor=#BAC8D3;fontColor=#EEEEEE;" parent="1" vertex="1">
          <mxGeometry x="645" y="485" width="80" height="80" as="geometry" />
        </mxCell>
        <mxCell id="_nmwgqTeBemc5d6kzkCD-45" value="" style="whiteSpace=wrap;html=1;aspect=fixed;labelBackgroundColor=none;fillColor=#09555B;strokeColor=#BAC8D3;fontColor=#EEEEEE;" parent="1" vertex="1">
          <mxGeometry x="855" y="485" width="80" height="80" as="geometry" />
        </mxCell>
        <mxCell id="_nmwgqTeBemc5d6kzkCD-46" value="" style="endArrow=none;html=1;rounded=0;exitX=1;exitY=0;exitDx=0;exitDy=0;entryX=0.5;entryY=1;entryDx=0;entryDy=0;labelBackgroundColor=none;strokeColor=#0B4D6A;fontColor=default;" parent="1" source="_nmwgqTeBemc5d6kzkCD-41" target="_nmwgqTeBemc5d6kzkCD-43" edge="1">
          <mxGeometry width="50" height="50" relative="1" as="geometry">
            <mxPoint x="1015" y="415" as="sourcePoint" />
            <mxPoint x="1065" y="365" as="targetPoint" />
          </mxGeometry>
        </mxCell>
        <mxCell id="_nmwgqTeBemc5d6kzkCD-47" value="" style="endArrow=none;html=1;rounded=0;exitX=0;exitY=0;exitDx=0;exitDy=0;entryX=0.5;entryY=1;entryDx=0;entryDy=0;labelBackgroundColor=none;strokeColor=#0B4D6A;fontColor=default;" parent="1" source="_nmwgqTeBemc5d6kzkCD-41" target="_nmwgqTeBemc5d6kzkCD-42" edge="1">
          <mxGeometry width="50" height="50" relative="1" as="geometry">
            <mxPoint x="855" y="375" as="sourcePoint" />
            <mxPoint x="879" y="315" as="targetPoint" />
          </mxGeometry>
        </mxCell>
        <mxCell id="_nmwgqTeBemc5d6kzkCD-48" value="" style="endArrow=none;html=1;rounded=0;exitX=1;exitY=1;exitDx=0;exitDy=0;entryX=0.5;entryY=0;entryDx=0;entryDy=0;labelBackgroundColor=none;strokeColor=#0B4D6A;fontColor=default;" parent="1" source="_nmwgqTeBemc5d6kzkCD-41" target="_nmwgqTeBemc5d6kzkCD-45" edge="1">
          <mxGeometry width="50" height="50" relative="1" as="geometry">
            <mxPoint x="855" y="375" as="sourcePoint" />
            <mxPoint x="895" y="315" as="targetPoint" />
          </mxGeometry>
        </mxCell>
        <mxCell id="_nmwgqTeBemc5d6kzkCD-49" value="" style="endArrow=none;html=1;rounded=0;exitX=0.5;exitY=0;exitDx=0;exitDy=0;entryX=0;entryY=1;entryDx=0;entryDy=0;labelBackgroundColor=none;strokeColor=#0B4D6A;fontColor=default;" parent="1" source="_nmwgqTeBemc5d6kzkCD-44" target="_nmwgqTeBemc5d6kzkCD-41" edge="1">
          <mxGeometry width="50" height="50" relative="1" as="geometry">
            <mxPoint x="855" y="435" as="sourcePoint" />
            <mxPoint x="905" y="495" as="targetPoint" />
          </mxGeometry>
        </mxCell>
        <mxCell id="_nmwgqTeBemc5d6kzkCD-50" value="&lt;h1&gt;&lt;b&gt;Switch 02&lt;/b&gt;&lt;/h1&gt;" style="text;strokeColor=none;align=center;fillColor=none;html=1;verticalAlign=middle;whiteSpace=wrap;rounded=0;fontColor=#EEEEEE;" parent="1" vertex="1">
          <mxGeometry x="765" y="380" width="60" height="30" as="geometry" />
        </mxCell>
        <mxCell id="_nmwgqTeBemc5d6kzkCD-51" value="&lt;h1&gt;PC05&lt;/h1&gt;" style="text;strokeColor=none;align=center;fillColor=none;html=1;verticalAlign=middle;whiteSpace=wrap;rounded=0;fontColor=#EEEEEE;" parent="1" vertex="1">
          <mxGeometry x="655" y="255" width="60" height="30" as="geometry" />
        </mxCell>
        <mxCell id="_nmwgqTeBemc5d6kzkCD-52" value="&lt;h1&gt;PC06&lt;/h1&gt;" style="text;strokeColor=none;align=center;fillColor=none;html=1;verticalAlign=middle;whiteSpace=wrap;rounded=0;fontColor=#EEEEEE;" parent="1" vertex="1">
          <mxGeometry x="855" y="250" width="60" height="30" as="geometry" />
        </mxCell>
        <mxCell id="_nmwgqTeBemc5d6kzkCD-53" value="&lt;h1&gt;PC08&lt;/h1&gt;" style="text;strokeColor=none;align=center;fillColor=none;html=1;verticalAlign=middle;whiteSpace=wrap;rounded=0;fontColor=#EEEEEE;" parent="1" vertex="1">
          <mxGeometry x="865" y="510" width="60" height="30" as="geometry" />
        </mxCell>
        <mxCell id="_nmwgqTeBemc5d6kzkCD-54" value="&lt;h1&gt;PC07&lt;/h1&gt;" style="text;strokeColor=none;align=center;fillColor=none;html=1;verticalAlign=middle;whiteSpace=wrap;rounded=0;fontColor=#EEEEEE;" parent="1" vertex="1">
          <mxGeometry x="655" y="509" width="60" height="30" as="geometry" />
        </mxCell>
        <object label="" Switch="Switch" id="_nmwgqTeBemc5d6kzkCD-55">
          <mxCell style="rounded=0;whiteSpace=wrap;html=1;labelBackgroundColor=none;fillColor=#09555B;strokeColor=#BAC8D3;fontColor=#EEEEEE;" parent="1" vertex="1">
            <mxGeometry x="485" y="365" width="120" height="60" as="geometry" />
          </mxCell>
        </object>
        <mxCell id="_nmwgqTeBemc5d6kzkCD-56" value="&lt;h1&gt;&lt;b&gt;Main Switch&lt;/b&gt;&lt;/h1&gt;" style="text;strokeColor=none;align=center;fillColor=none;html=1;verticalAlign=middle;whiteSpace=wrap;rounded=0;fontColor=#EEEEEE;" parent="1" vertex="1">
          <mxGeometry x="515" y="380" width="60" height="30" as="geometry" />
        </mxCell>
        <mxCell id="_nmwgqTeBemc5d6kzkCD-59" value="&lt;h1&gt;Farhaz Khondoker&lt;/h1&gt;" style="text;strokeColor=none;align=center;fillColor=none;html=1;verticalAlign=middle;whiteSpace=wrap;rounded=0;fontColor=default;" parent="1" vertex="1">
          <mxGeometry x="465" y="138" width="160" height="71" as="geometry" />
        </mxCell>
        <mxCell id="mW3K7se4-uhzEdI-s12M-2" value="" style="endArrow=none;html=1;rounded=0;entryX=0;entryY=0.5;entryDx=0;entryDy=0;" edge="1" parent="1" target="_nmwgqTeBemc5d6kzkCD-55">
          <mxGeometry width="50" height="50" relative="1" as="geometry">
            <mxPoint x="375" y="390" as="sourcePoint" />
            <mxPoint x="425" y="340" as="targetPoint" />
          </mxGeometry>
        </mxCell>
        <mxCell id="mW3K7se4-uhzEdI-s12M-3" value="" style="endArrow=none;html=1;rounded=0;entryX=0;entryY=0.5;entryDx=0;entryDy=0;exitX=1;exitY=0.5;exitDx=0;exitDy=0;" edge="1" parent="1" source="_nmwgqTeBemc5d6kzkCD-55">
          <mxGeometry width="50" height="50" relative="1" as="geometry">
            <mxPoint x="625" y="385" as="sourcePoint" />
            <mxPoint x="735" y="390" as="targetPoint" />
          </mxGeometry>
        </mxCell>
      </root>
    </mxGraphModel>
  </diagram>
</mxfile>
